<mxfile host="app.diagrams.net" agent="Mozilla/5.0 (Macintosh; Intel Mac OS X 10_15_7) AppleWebKit/537.36 (KHTML, like Gecko) Chrome/131.0.0.0 Safari/537.36" version="25.0.3">
  <diagram name="Page-1" id="9BB5iWTIzU-Hl_XkpuT6">
    <mxGraphModel dx="6295" dy="-446" grid="1" gridSize="10" guides="1" tooltips="1" connect="1" arrows="1" fold="1" page="1" pageScale="1" pageWidth="850" pageHeight="1100" math="0" shadow="0">
      <root>
        <mxCell id="0" />
        <mxCell id="1" parent="0" />
        <mxCell id="avMDx9u3WF0ZAJYoT9_1-1" value="" style="rounded=0;whiteSpace=wrap;html=1;dashed=1;strokeColor=#9933FF;strokeWidth=2;fillColor=none;" vertex="1" parent="1">
          <mxGeometry x="-4870" y="1430" width="850" height="850" as="geometry" />
        </mxCell>
        <mxCell id="avMDx9u3WF0ZAJYoT9_1-2" value="X云-法兰克福" style="swimlane;whiteSpace=wrap;html=1;align=left;" vertex="1" parent="1">
          <mxGeometry x="-4880" y="1290" width="870" height="530" as="geometry" />
        </mxCell>
        <mxCell id="avMDx9u3WF0ZAJYoT9_1-3" style="edgeStyle=orthogonalEdgeStyle;rounded=0;orthogonalLoop=1;jettySize=auto;html=1;entryX=0.5;entryY=0;entryDx=0;entryDy=0;" edge="1" parent="avMDx9u3WF0ZAJYoT9_1-2" source="avMDx9u3WF0ZAJYoT9_1-4" target="avMDx9u3WF0ZAJYoT9_1-8">
          <mxGeometry relative="1" as="geometry" />
        </mxCell>
        <mxCell id="avMDx9u3WF0ZAJYoT9_1-4" value="交易" style="rounded=0;whiteSpace=wrap;html=1;" vertex="1" parent="avMDx9u3WF0ZAJYoT9_1-2">
          <mxGeometry x="235" y="41" width="120" height="60" as="geometry" />
        </mxCell>
        <mxCell id="avMDx9u3WF0ZAJYoT9_1-5" style="edgeStyle=orthogonalEdgeStyle;rounded=0;orthogonalLoop=1;jettySize=auto;html=1;entryX=0.5;entryY=0;entryDx=0;entryDy=0;" edge="1" parent="avMDx9u3WF0ZAJYoT9_1-2" source="avMDx9u3WF0ZAJYoT9_1-6" target="avMDx9u3WF0ZAJYoT9_1-8">
          <mxGeometry relative="1" as="geometry" />
        </mxCell>
        <mxCell id="avMDx9u3WF0ZAJYoT9_1-6" value="其他业务系统" style="rounded=0;whiteSpace=wrap;html=1;" vertex="1" parent="avMDx9u3WF0ZAJYoT9_1-2">
          <mxGeometry x="515" y="41" width="120" height="60" as="geometry" />
        </mxCell>
        <mxCell id="avMDx9u3WF0ZAJYoT9_1-7" style="edgeStyle=orthogonalEdgeStyle;rounded=0;orthogonalLoop=1;jettySize=auto;html=1;entryX=0.5;entryY=0;entryDx=0;entryDy=0;fillColor=#60a917;strokeColor=#2D7600;strokeWidth=2;exitX=0.47;exitY=1.008;exitDx=0;exitDy=0;exitPerimeter=0;" edge="1" parent="avMDx9u3WF0ZAJYoT9_1-2" source="avMDx9u3WF0ZAJYoT9_1-8" target="avMDx9u3WF0ZAJYoT9_1-15">
          <mxGeometry relative="1" as="geometry" />
        </mxCell>
        <mxCell id="avMDx9u3WF0ZAJYoT9_1-8" value="渠道路由适配" style="rounded=0;whiteSpace=wrap;html=1;align=left;verticalAlign=top;fontStyle=1" vertex="1" parent="avMDx9u3WF0ZAJYoT9_1-2">
          <mxGeometry x="40" y="161" width="800" height="119" as="geometry" />
        </mxCell>
        <mxCell id="avMDx9u3WF0ZAJYoT9_1-9" value="新老接口转换" style="rounded=1;whiteSpace=wrap;html=1;fillColor=#d5e8d4;strokeColor=#82b366;" vertex="1" parent="avMDx9u3WF0ZAJYoT9_1-2">
          <mxGeometry x="110.5" y="198.25" width="90" height="44.5" as="geometry" />
        </mxCell>
        <mxCell id="avMDx9u3WF0ZAJYoT9_1-10" value="灰度控制" style="rounded=1;whiteSpace=wrap;html=1;fillColor=#d5e8d4;strokeColor=#82b366;" vertex="1" parent="avMDx9u3WF0ZAJYoT9_1-2">
          <mxGeometry x="219.5" y="198.25" width="90" height="44.5" as="geometry" />
        </mxCell>
        <mxCell id="avMDx9u3WF0ZAJYoT9_1-11" value="标准默认参数&lt;div&gt;补全&lt;/div&gt;" style="rounded=1;whiteSpace=wrap;html=1;fillColor=#d5e8d4;strokeColor=#82b366;" vertex="1" parent="avMDx9u3WF0ZAJYoT9_1-2">
          <mxGeometry x="329.5" y="198.25" width="90" height="44.5" as="geometry" />
        </mxCell>
        <mxCell id="avMDx9u3WF0ZAJYoT9_1-12" value="流量控制" style="rounded=1;whiteSpace=wrap;html=1;fillColor=#d5e8d4;strokeColor=#82b366;" vertex="1" parent="avMDx9u3WF0ZAJYoT9_1-2">
          <mxGeometry x="439.5" y="198.25" width="90" height="44.5" as="geometry" />
        </mxCell>
        <mxCell id="avMDx9u3WF0ZAJYoT9_1-13" value="流量监控" style="rounded=1;whiteSpace=wrap;html=1;fillColor=#d5e8d4;strokeColor=#82b366;" vertex="1" parent="avMDx9u3WF0ZAJYoT9_1-2">
          <mxGeometry x="549.5" y="198.25" width="90" height="44.5" as="geometry" />
        </mxCell>
        <mxCell id="avMDx9u3WF0ZAJYoT9_1-14" style="edgeStyle=orthogonalEdgeStyle;rounded=0;orthogonalLoop=1;jettySize=auto;html=1;entryX=0;entryY=0.25;entryDx=0;entryDy=0;exitX=1;exitY=0.25;exitDx=0;exitDy=0;strokeWidth=2;fillColor=#008a00;strokeColor=#005700;" edge="1" parent="avMDx9u3WF0ZAJYoT9_1-2" source="avMDx9u3WF0ZAJYoT9_1-15" target="avMDx9u3WF0ZAJYoT9_1-17">
          <mxGeometry relative="1" as="geometry" />
        </mxCell>
        <mxCell id="avMDx9u3WF0ZAJYoT9_1-15" value="路由单" style="rounded=0;whiteSpace=wrap;html=1;align=left;verticalAlign=top;fontStyle=1" vertex="1" parent="avMDx9u3WF0ZAJYoT9_1-2">
          <mxGeometry x="241" y="321" width="350" height="199" as="geometry" />
        </mxCell>
        <mxCell id="avMDx9u3WF0ZAJYoT9_1-16" style="edgeStyle=orthogonalEdgeStyle;rounded=0;orthogonalLoop=1;jettySize=auto;html=1;entryX=1;entryY=0.5;entryDx=0;entryDy=0;strokeWidth=2;fillColor=#008a00;strokeColor=#005700;" edge="1" parent="avMDx9u3WF0ZAJYoT9_1-2" source="avMDx9u3WF0ZAJYoT9_1-17" target="avMDx9u3WF0ZAJYoT9_1-15">
          <mxGeometry relative="1" as="geometry" />
        </mxCell>
        <mxCell id="avMDx9u3WF0ZAJYoT9_1-17" value="路由决策引擎" style="rounded=0;whiteSpace=wrap;html=1;align=left;verticalAlign=top;fontStyle=1" vertex="1" parent="avMDx9u3WF0ZAJYoT9_1-2">
          <mxGeometry x="620" y="321" width="220" height="199" as="geometry" />
        </mxCell>
        <mxCell id="avMDx9u3WF0ZAJYoT9_1-18" value="路由单落单" style="rounded=1;whiteSpace=wrap;html=1;fillColor=#d5e8d4;strokeColor=#82b366;" vertex="1" parent="avMDx9u3WF0ZAJYoT9_1-2">
          <mxGeometry x="259" y="353" width="90" height="44.5" as="geometry" />
        </mxCell>
        <mxCell id="avMDx9u3WF0ZAJYoT9_1-19" value="路由前队列" style="rounded=1;whiteSpace=wrap;html=1;fillColor=#d5e8d4;strokeColor=#82b366;" vertex="1" parent="avMDx9u3WF0ZAJYoT9_1-2">
          <mxGeometry x="364" y="353" width="90" height="44.5" as="geometry" />
        </mxCell>
        <mxCell id="avMDx9u3WF0ZAJYoT9_1-20" value="渠道决策&lt;div&gt;（可视化）&lt;/div&gt;" style="rounded=1;whiteSpace=wrap;html=1;fillColor=#d5e8d4;strokeColor=#82b366;" vertex="1" parent="avMDx9u3WF0ZAJYoT9_1-2">
          <mxGeometry x="635" y="351" width="90" height="39" as="geometry" />
        </mxCell>
        <mxCell id="avMDx9u3WF0ZAJYoT9_1-21" value="分发前置条件&lt;div&gt;决策&lt;/div&gt;" style="rounded=1;whiteSpace=wrap;html=1;fillColor=#d5e8d4;strokeColor=#82b366;" vertex="1" parent="avMDx9u3WF0ZAJYoT9_1-2">
          <mxGeometry x="635" y="405" width="90" height="39" as="geometry" />
        </mxCell>
        <mxCell id="avMDx9u3WF0ZAJYoT9_1-22" value="路由后队列" style="rounded=1;whiteSpace=wrap;html=1;fillColor=#d5e8d4;strokeColor=#82b366;" vertex="1" parent="avMDx9u3WF0ZAJYoT9_1-2">
          <mxGeometry x="364" y="405" width="90" height="44.5" as="geometry" />
        </mxCell>
        <mxCell id="avMDx9u3WF0ZAJYoT9_1-23" value="终态异步通知" style="rounded=1;whiteSpace=wrap;html=1;fillColor=#d5e8d4;strokeColor=#82b366;" vertex="1" parent="avMDx9u3WF0ZAJYoT9_1-2">
          <mxGeometry x="259" y="405" width="90" height="44.5" as="geometry" />
        </mxCell>
        <mxCell id="avMDx9u3WF0ZAJYoT9_1-24" value="重路由" style="rounded=1;whiteSpace=wrap;html=1;fillColor=#d5e8d4;strokeColor=#82b366;" vertex="1" parent="avMDx9u3WF0ZAJYoT9_1-2">
          <mxGeometry x="474" y="353" width="90" height="44.5" as="geometry" />
        </mxCell>
        <mxCell id="avMDx9u3WF0ZAJYoT9_1-25" value="通用指标&lt;div&gt;采集监控&lt;/div&gt;" style="rounded=1;whiteSpace=wrap;html=1;fillColor=#d5e8d4;strokeColor=#82b366;" vertex="1" parent="avMDx9u3WF0ZAJYoT9_1-2">
          <mxGeometry x="474" y="405" width="90" height="44.5" as="geometry" />
        </mxCell>
        <mxCell id="avMDx9u3WF0ZAJYoT9_1-26" value="模拟路由/巡检" style="rounded=1;whiteSpace=wrap;html=1;fillColor=#d5e8d4;strokeColor=#82b366;" vertex="1" parent="avMDx9u3WF0ZAJYoT9_1-2">
          <mxGeometry x="735" y="351" width="90" height="39" as="geometry" />
        </mxCell>
        <mxCell id="avMDx9u3WF0ZAJYoT9_1-27" value="成本试算" style="rounded=1;whiteSpace=wrap;html=1;fillColor=#d5e8d4;strokeColor=#82b366;" vertex="1" parent="avMDx9u3WF0ZAJYoT9_1-2">
          <mxGeometry x="735" y="405" width="90" height="39" as="geometry" />
        </mxCell>
        <mxCell id="avMDx9u3WF0ZAJYoT9_1-28" value="路由策略灰度" style="rounded=1;whiteSpace=wrap;html=1;fillColor=#d5e8d4;strokeColor=#82b366;" vertex="1" parent="avMDx9u3WF0ZAJYoT9_1-2">
          <mxGeometry x="635" y="457.5" width="90" height="39" as="geometry" />
        </mxCell>
        <mxCell id="avMDx9u3WF0ZAJYoT9_1-29" value="最优策略组计算" style="rounded=1;whiteSpace=wrap;html=1;fillColor=#d5e8d4;strokeColor=#82b366;" vertex="1" parent="avMDx9u3WF0ZAJYoT9_1-2">
          <mxGeometry x="735" y="457.5" width="90" height="39" as="geometry" />
        </mxCell>
        <mxCell id="avMDx9u3WF0ZAJYoT9_1-30" value="高频迭代" style="text;html=1;align=center;verticalAlign=middle;whiteSpace=wrap;rounded=0;" vertex="1" parent="avMDx9u3WF0ZAJYoT9_1-2">
          <mxGeometry x="760" y="321" width="60" height="30" as="geometry" />
        </mxCell>
        <mxCell id="avMDx9u3WF0ZAJYoT9_1-31" value="通用流动性&lt;div&gt;指标计算&lt;/div&gt;" style="rounded=1;whiteSpace=wrap;html=1;fillColor=#d5e8d4;strokeColor=#82b366;" vertex="1" parent="avMDx9u3WF0ZAJYoT9_1-2">
          <mxGeometry x="259" y="457.5" width="90" height="44.5" as="geometry" />
        </mxCell>
        <mxCell id="avMDx9u3WF0ZAJYoT9_1-90" value="..." style="rounded=1;whiteSpace=wrap;html=1;fillColor=#d5e8d4;strokeColor=#82b366;" vertex="1" parent="avMDx9u3WF0ZAJYoT9_1-2">
          <mxGeometry x="679.5" y="198.25" width="90" height="44.5" as="geometry" />
        </mxCell>
        <mxCell id="avMDx9u3WF0ZAJYoT9_1-32" value="AWS-爱尔兰" style="swimlane;whiteSpace=wrap;html=1;align=left;" vertex="1" parent="1">
          <mxGeometry x="-4880" y="1840" width="870" height="500" as="geometry" />
        </mxCell>
        <mxCell id="avMDx9u3WF0ZAJYoT9_1-33" value="渠道接入网关域" style="rounded=0;whiteSpace=wrap;html=1;dashed=1;align=left;verticalAlign=top;" vertex="1" parent="avMDx9u3WF0ZAJYoT9_1-32">
          <mxGeometry x="40" y="280" width="800" height="140" as="geometry" />
        </mxCell>
        <mxCell id="avMDx9u3WF0ZAJYoT9_1-38" style="rounded=0;orthogonalLoop=1;jettySize=auto;html=1;entryX=0.5;entryY=0;entryDx=0;entryDy=0;fillColor=#008a00;strokeColor=#005700;strokeWidth=2;exitX=0.5;exitY=1;exitDx=0;exitDy=0;" edge="1" parent="avMDx9u3WF0ZAJYoT9_1-32" source="avMDx9u3WF0ZAJYoT9_1-42" target="avMDx9u3WF0ZAJYoT9_1-52">
          <mxGeometry relative="1" as="geometry" />
        </mxCell>
        <mxCell id="avMDx9u3WF0ZAJYoT9_1-42" value="渠道订单分发" style="rounded=0;whiteSpace=wrap;html=1;align=left;verticalAlign=top;fontStyle=1" vertex="1" parent="avMDx9u3WF0ZAJYoT9_1-32">
          <mxGeometry x="210" y="70" width="400" height="159" as="geometry" />
        </mxCell>
        <mxCell id="avMDx9u3WF0ZAJYoT9_1-44" value="渠道接入网关&lt;div&gt;注册&lt;/div&gt;" style="rounded=1;whiteSpace=wrap;html=1;fillColor=#dae8fc;strokeColor=#6c8ebf;" vertex="1" parent="avMDx9u3WF0ZAJYoT9_1-32">
          <mxGeometry x="235" y="109" width="90" height="44.5" as="geometry" />
        </mxCell>
        <mxCell id="avMDx9u3WF0ZAJYoT9_1-45" value="渠道网关能力&lt;div&gt;管理&lt;/div&gt;" style="rounded=1;whiteSpace=wrap;html=1;fillColor=#dae8fc;strokeColor=#6c8ebf;" vertex="1" parent="avMDx9u3WF0ZAJYoT9_1-32">
          <mxGeometry x="370" y="109" width="90" height="44.5" as="geometry" />
        </mxCell>
        <mxCell id="avMDx9u3WF0ZAJYoT9_1-46" value="渠道接入网关版本控制" style="rounded=1;whiteSpace=wrap;html=1;fillColor=#dae8fc;strokeColor=#6c8ebf;" vertex="1" parent="avMDx9u3WF0ZAJYoT9_1-32">
          <mxGeometry x="490" y="109" width="90" height="44.5" as="geometry" />
        </mxCell>
        <mxCell id="avMDx9u3WF0ZAJYoT9_1-47" value="流量分发&lt;div&gt;灰度能力&lt;/div&gt;" style="rounded=1;whiteSpace=wrap;html=1;fillColor=#dae8fc;strokeColor=#6c8ebf;" vertex="1" parent="avMDx9u3WF0ZAJYoT9_1-32">
          <mxGeometry x="370" y="169" width="90" height="44.5" as="geometry" />
        </mxCell>
        <mxCell id="avMDx9u3WF0ZAJYoT9_1-48" value="非标渠道接入网关适配" style="rounded=1;whiteSpace=wrap;html=1;fillColor=#dae8fc;strokeColor=#6c8ebf;" vertex="1" parent="avMDx9u3WF0ZAJYoT9_1-32">
          <mxGeometry x="235" y="169" width="90" height="44.5" as="geometry" />
        </mxCell>
        <mxCell id="avMDx9u3WF0ZAJYoT9_1-51" value="标准渠道接入网关&lt;div&gt;xx-channel-gateway&lt;/div&gt;" style="rounded=0;whiteSpace=wrap;html=1;fillColor=#d5e8d4;strokeColor=#82b366;" vertex="1" parent="avMDx9u3WF0ZAJYoT9_1-32">
          <mxGeometry x="145" y="340" width="120" height="60" as="geometry" />
        </mxCell>
        <mxCell id="avMDx9u3WF0ZAJYoT9_1-52" value="标准渠道接入网关&lt;div&gt;NIBSS-channel-gateway&lt;/div&gt;" style="rounded=0;whiteSpace=wrap;html=1;fillColor=#d5e8d4;strokeColor=#82b366;" vertex="1" parent="avMDx9u3WF0ZAJYoT9_1-32">
          <mxGeometry x="350" y="340" width="120" height="60" as="geometry" />
        </mxCell>
        <mxCell id="avMDx9u3WF0ZAJYoT9_1-55" style="rounded=0;orthogonalLoop=1;jettySize=auto;html=1;entryX=0.5;entryY=0;entryDx=0;entryDy=0;fillColor=#008a00;strokeColor=#005700;strokeWidth=2;exitX=0.5;exitY=1;exitDx=0;exitDy=0;" edge="1" parent="avMDx9u3WF0ZAJYoT9_1-32" source="avMDx9u3WF0ZAJYoT9_1-42" target="avMDx9u3WF0ZAJYoT9_1-51">
          <mxGeometry relative="1" as="geometry" />
        </mxCell>
        <mxCell id="avMDx9u3WF0ZAJYoT9_1-57" style="rounded=0;orthogonalLoop=1;jettySize=auto;html=1;entryX=0.517;entryY=0.009;entryDx=0;entryDy=0;entryPerimeter=0;exitX=0.5;exitY=1;exitDx=0;exitDy=0;fillColor=#008a00;strokeColor=#005700;strokeWidth=2;" edge="1" parent="1" source="avMDx9u3WF0ZAJYoT9_1-15" target="avMDx9u3WF0ZAJYoT9_1-42">
          <mxGeometry relative="1" as="geometry" />
        </mxCell>
        <mxCell id="avMDx9u3WF0ZAJYoT9_1-58" value="外部渠道（尼日利亚 拉各斯）" style="swimlane;whiteSpace=wrap;html=1;align=left;" vertex="1" parent="1">
          <mxGeometry x="-4880" y="2380" width="870" height="200" as="geometry" />
        </mxCell>
        <mxCell id="avMDx9u3WF0ZAJYoT9_1-60" value="xx" style="shape=image;html=1;verticalAlign=top;verticalLabelPosition=bottom;labelBackgroundColor=#ffffff;imageAspect=0;aspect=fixed;image=https://cdn4.iconfinder.com/data/icons/48-bubbles/48/04.Bank-128.png" vertex="1" parent="avMDx9u3WF0ZAJYoT9_1-58">
          <mxGeometry x="170.04999999999998" y="70" width="70" height="70" as="geometry" />
        </mxCell>
        <mxCell id="avMDx9u3WF0ZAJYoT9_1-62" value="NIBSS" style="shape=image;html=1;verticalAlign=top;verticalLabelPosition=bottom;labelBackgroundColor=#ffffff;imageAspect=0;aspect=fixed;image=https://cdn4.iconfinder.com/data/icons/48-bubbles/48/04.Bank-128.png" vertex="1" parent="avMDx9u3WF0ZAJYoT9_1-58">
          <mxGeometry x="380" y="70" width="70" height="70" as="geometry" />
        </mxCell>
        <mxCell id="avMDx9u3WF0ZAJYoT9_1-63" value="MTN" style="shape=image;html=1;verticalAlign=top;verticalLabelPosition=bottom;labelBackgroundColor=#ffffff;imageAspect=0;aspect=fixed;image=https://cdn4.iconfinder.com/data/icons/48-bubbles/48/04.Bank-128.png" vertex="1" parent="avMDx9u3WF0ZAJYoT9_1-58">
          <mxGeometry x="596" y="70" width="70" height="70" as="geometry" />
        </mxCell>
        <mxCell id="avMDx9u3WF0ZAJYoT9_1-64" value="..." style="shape=image;html=1;verticalAlign=top;verticalLabelPosition=bottom;labelBackgroundColor=#ffffff;imageAspect=0;aspect=fixed;image=https://cdn4.iconfinder.com/data/icons/48-bubbles/48/04.Bank-128.png" vertex="1" parent="avMDx9u3WF0ZAJYoT9_1-58">
          <mxGeometry x="730" y="70" width="70" height="70" as="geometry" />
        </mxCell>
        <mxCell id="avMDx9u3WF0ZAJYoT9_1-65" value="分发层" style="rounded=1;whiteSpace=wrap;html=1;fillColor=#dae8fc;strokeColor=#6c8ebf;" vertex="1" parent="1">
          <mxGeometry x="-5059.5" y="1361.25" width="90" height="44.5" as="geometry" />
        </mxCell>
        <mxCell id="avMDx9u3WF0ZAJYoT9_1-66" value="路由成" style="rounded=1;whiteSpace=wrap;html=1;fillColor=#d5e8d4;strokeColor=#82b366;" vertex="1" parent="1">
          <mxGeometry x="-5059.5" y="1290" width="90" height="44.5" as="geometry" />
        </mxCell>
        <mxCell id="avMDx9u3WF0ZAJYoT9_1-67" value="渠道接入网关层" style="rounded=1;whiteSpace=wrap;html=1;fillColor=#ffe6cc;strokeColor=#d79b00;" vertex="1" parent="1">
          <mxGeometry x="-5059.5" y="1432.5" width="90" height="44.5" as="geometry" />
        </mxCell>
        <mxCell id="avMDx9u3WF0ZAJYoT9_1-74" value="标准渠道接入网关" style="rounded=0;whiteSpace=wrap;html=1;verticalAlign=top;align=left;fontStyle=1" vertex="1" parent="1">
          <mxGeometry x="-3920" y="2100" width="480" height="220" as="geometry" />
        </mxCell>
        <mxCell id="avMDx9u3WF0ZAJYoT9_1-75" value="标准SPI&lt;div&gt;（业务维度）&lt;/div&gt;" style="rounded=1;whiteSpace=wrap;html=1;fillColor=#d5e8d4;strokeColor=#82b366;" vertex="1" parent="1">
          <mxGeometry x="-3900.5" y="2135.75" width="90" height="44.5" as="geometry" />
        </mxCell>
        <mxCell id="avMDx9u3WF0ZAJYoT9_1-76" value="机构码转换" style="rounded=1;whiteSpace=wrap;html=1;fillColor=#d5e8d4;strokeColor=#82b366;" vertex="1" parent="1">
          <mxGeometry x="-3900.5" y="2198" width="90" height="44.5" as="geometry" />
        </mxCell>
        <mxCell id="avMDx9u3WF0ZAJYoT9_1-77" value="渠道订单&lt;div&gt;流程控制&lt;/div&gt;" style="rounded=1;whiteSpace=wrap;html=1;fillColor=#d5e8d4;strokeColor=#82b366;" vertex="1" parent="1">
          <mxGeometry x="-3900.5" y="2259" width="90" height="44.5" as="geometry" />
        </mxCell>
        <mxCell id="avMDx9u3WF0ZAJYoT9_1-78" value="渠道响应码映射&lt;div&gt;标准码&amp;amp;状态&lt;/div&gt;" style="rounded=1;whiteSpace=wrap;html=1;fillColor=#d5e8d4;strokeColor=#82b366;" vertex="1" parent="1">
          <mxGeometry x="-3777.25" y="2135.75" width="90" height="44.5" as="geometry" />
        </mxCell>
        <mxCell id="avMDx9u3WF0ZAJYoT9_1-79" value="特定响应码&lt;div&gt;动作处理&lt;/div&gt;" style="rounded=1;whiteSpace=wrap;html=1;fillColor=#d5e8d4;strokeColor=#82b366;" vertex="1" parent="1">
          <mxGeometry x="-3777.25" y="2198" width="90" height="44.5" as="geometry" />
        </mxCell>
        <mxCell id="avMDx9u3WF0ZAJYoT9_1-80" value="pending订单&lt;div&gt;轮询&lt;/div&gt;" style="rounded=1;whiteSpace=wrap;html=1;fillColor=#d5e8d4;strokeColor=#82b366;" vertex="1" parent="1">
          <mxGeometry x="-3777.25" y="2259" width="90" height="44.5" as="geometry" />
        </mxCell>
        <mxCell id="avMDx9u3WF0ZAJYoT9_1-81" value="终态订单&lt;div&gt;状态同步&lt;/div&gt;" style="rounded=1;whiteSpace=wrap;html=1;fillColor=#d5e8d4;strokeColor=#82b366;" vertex="1" parent="1">
          <mxGeometry x="-3663.5" y="2135.75" width="90" height="44.5" as="geometry" />
        </mxCell>
        <mxCell id="avMDx9u3WF0ZAJYoT9_1-82" value="原单重试" style="rounded=1;whiteSpace=wrap;html=1;fillColor=#d5e8d4;strokeColor=#82b366;" vertex="1" parent="1">
          <mxGeometry x="-3663.5" y="2198" width="90" height="44.5" as="geometry" />
        </mxCell>
        <mxCell id="avMDx9u3WF0ZAJYoT9_1-83" value="渠道单交易对账" style="rounded=1;whiteSpace=wrap;html=1;fillColor=#f5f5f5;strokeColor=#666666;fontColor=#333333;" vertex="1" parent="1">
          <mxGeometry x="-3550" y="2198" width="90" height="44.5" as="geometry" />
        </mxCell>
        <mxCell id="avMDx9u3WF0ZAJYoT9_1-84" style="rounded=0;orthogonalLoop=1;jettySize=auto;html=1;entryX=0;entryY=0.5;entryDx=0;entryDy=0;dashed=1;" edge="1" parent="1" source="avMDx9u3WF0ZAJYoT9_1-53" target="avMDx9u3WF0ZAJYoT9_1-74">
          <mxGeometry relative="1" as="geometry" />
        </mxCell>
        <mxCell id="avMDx9u3WF0ZAJYoT9_1-85" value="放大" style="edgeLabel;html=1;align=center;verticalAlign=middle;resizable=0;points=[];" vertex="1" connectable="0" parent="avMDx9u3WF0ZAJYoT9_1-84">
          <mxGeometry x="-0.0466" y="-2" relative="1" as="geometry">
            <mxPoint as="offset" />
          </mxGeometry>
        </mxCell>
        <mxCell id="avMDx9u3WF0ZAJYoT9_1-86" value="支付网络" style="rounded=0;whiteSpace=wrap;html=1;dashed=1;strokeColor=#9933FF;strokeWidth=2;fillColor=none;" vertex="1" parent="1">
          <mxGeometry x="-5059.5" y="1510" width="90" height="50" as="geometry" />
        </mxCell>
        <mxCell id="avMDx9u3WF0ZAJYoT9_1-87" value="多线路管理" style="rounded=1;whiteSpace=wrap;html=1;fillColor=#d5e8d4;strokeColor=#82b366;" vertex="1" parent="1">
          <mxGeometry x="-3663.5" y="2259" width="90" height="44.5" as="geometry" />
        </mxCell>
        <mxCell id="avMDx9u3WF0ZAJYoT9_1-88" value="多秘钥管理" style="rounded=1;whiteSpace=wrap;html=1;fillColor=#d5e8d4;strokeColor=#82b366;" vertex="1" parent="1">
          <mxGeometry x="-3550" y="2135.75" width="90" height="44.5" as="geometry" />
        </mxCell>
        <mxCell id="avMDx9u3WF0ZAJYoT9_1-103" style="rounded=0;orthogonalLoop=1;jettySize=auto;html=1;entryX=0.5;entryY=0;entryDx=0;entryDy=0;exitX=0.5;exitY=1;exitDx=0;exitDy=0;" edge="1" parent="1" source="avMDx9u3WF0ZAJYoT9_1-104" target="avMDx9u3WF0ZAJYoT9_1-64">
          <mxGeometry relative="1" as="geometry" />
        </mxCell>
        <mxCell id="avMDx9u3WF0ZAJYoT9_1-53" value="标准渠道接入网关&lt;div&gt;...&lt;/div&gt;" style="rounded=0;whiteSpace=wrap;html=1;fillColor=#d5e8d4;strokeColor=#82b366;" vertex="1" parent="1">
          <mxGeometry x="-4316" y="2180" width="120" height="60" as="geometry" />
        </mxCell>
        <mxCell id="avMDx9u3WF0ZAJYoT9_1-39" style="rounded=0;orthogonalLoop=1;jettySize=auto;html=1;entryX=0.5;entryY=0;entryDx=0;entryDy=0;fillColor=#008a00;strokeColor=#005700;strokeWidth=2;exitX=0.5;exitY=1;exitDx=0;exitDy=0;" edge="1" parent="1" source="avMDx9u3WF0ZAJYoT9_1-42" target="avMDx9u3WF0ZAJYoT9_1-53">
          <mxGeometry relative="1" as="geometry" />
        </mxCell>
        <mxCell id="avMDx9u3WF0ZAJYoT9_1-91" style="rounded=0;orthogonalLoop=1;jettySize=auto;html=1;entryX=0.5;entryY=0;entryDx=0;entryDy=0;" edge="1" parent="1" source="avMDx9u3WF0ZAJYoT9_1-113" target="avMDx9u3WF0ZAJYoT9_1-60">
          <mxGeometry relative="1" as="geometry">
            <mxPoint x="-4674.95" y="2355.8" as="sourcePoint" />
          </mxGeometry>
        </mxCell>
        <mxCell id="avMDx9u3WF0ZAJYoT9_1-92" style="rounded=0;orthogonalLoop=1;jettySize=auto;html=1;entryX=0.5;entryY=0;entryDx=0;entryDy=0;exitX=0.5;exitY=1;exitDx=0;exitDy=0;exitPerimeter=0;" edge="1" parent="1" source="avMDx9u3WF0ZAJYoT9_1-93" target="avMDx9u3WF0ZAJYoT9_1-62">
          <mxGeometry relative="1" as="geometry" />
        </mxCell>
        <mxCell id="avMDx9u3WF0ZAJYoT9_1-94" value="" style="rounded=0;orthogonalLoop=1;jettySize=auto;html=1;entryX=0.5;entryY=0;entryDx=0;entryDy=0;exitX=0.5;exitY=1;exitDx=0;exitDy=0;" edge="1" parent="1" source="avMDx9u3WF0ZAJYoT9_1-52" target="avMDx9u3WF0ZAJYoT9_1-93">
          <mxGeometry relative="1" as="geometry">
            <mxPoint x="-4459" y="2240" as="sourcePoint" />
            <mxPoint x="-4379" y="2450" as="targetPoint" />
          </mxGeometry>
        </mxCell>
        <mxCell id="avMDx9u3WF0ZAJYoT9_1-93" value="IPSec Site to Site VPN" style="sketch=0;points=[[0,0,0],[0.25,0,0],[0.5,0,0],[0.75,0,0],[1,0,0],[0,1,0],[0.25,1,0],[0.5,1,0],[0.75,1,0],[1,1,0],[0,0.25,0],[0,0.5,0],[0,0.75,0],[1,0.25,0],[1,0.5,0],[1,0.75,0]];outlineConnect=0;fontColor=#232F3E;fillColor=#8C4FFF;strokeColor=#ffffff;dashed=0;verticalLabelPosition=bottom;verticalAlign=top;align=center;html=1;fontSize=12;fontStyle=0;aspect=fixed;shape=mxgraph.aws4.resourceIcon;resIcon=mxgraph.aws4.site_to_site_vpn;" vertex="1" parent="1">
          <mxGeometry x="-4560" y="2320" width="39" height="39" as="geometry" />
        </mxCell>
        <mxCell id="avMDx9u3WF0ZAJYoT9_1-97" style="rounded=0;orthogonalLoop=1;jettySize=auto;html=1;entryX=0.5;entryY=0;entryDx=0;entryDy=0;exitX=0.5;exitY=1;exitDx=0;exitDy=0;exitPerimeter=0;" edge="1" parent="1" source="avMDx9u3WF0ZAJYoT9_1-95" target="avMDx9u3WF0ZAJYoT9_1-62">
          <mxGeometry relative="1" as="geometry" />
        </mxCell>
        <mxCell id="avMDx9u3WF0ZAJYoT9_1-95" value="Direct Connect" style="sketch=0;points=[[0,0,0],[0.25,0,0],[0.5,0,0],[0.75,0,0],[1,0,0],[0,1,0],[0.25,1,0],[0.5,1,0],[0.75,1,0],[1,1,0],[0,0.25,0],[0,0.5,0],[0,0.75,0],[1,0.25,0],[1,0.5,0],[1,0.75,0]];outlineConnect=0;fontColor=#232F3E;fillColor=#8C4FFF;strokeColor=#ffffff;dashed=0;verticalLabelPosition=bottom;verticalAlign=top;align=center;html=1;fontSize=12;fontStyle=0;aspect=fixed;shape=mxgraph.aws4.resourceIcon;resIcon=mxgraph.aws4.direct_connect;" vertex="1" parent="1">
          <mxGeometry x="-4426" y="2319.5" width="39.5" height="39.5" as="geometry" />
        </mxCell>
        <mxCell id="avMDx9u3WF0ZAJYoT9_1-96" style="rounded=0;orthogonalLoop=1;jettySize=auto;html=1;entryX=0.5;entryY=0;entryDx=0;entryDy=0;entryPerimeter=0;" edge="1" parent="1" source="avMDx9u3WF0ZAJYoT9_1-52" target="avMDx9u3WF0ZAJYoT9_1-95">
          <mxGeometry relative="1" as="geometry" />
        </mxCell>
        <mxCell id="avMDx9u3WF0ZAJYoT9_1-99" value="" style="rounded=0;orthogonalLoop=1;jettySize=auto;html=1;entryX=0.5;entryY=0;entryDx=0;entryDy=0;" edge="1" parent="1" source="avMDx9u3WF0ZAJYoT9_1-51">
          <mxGeometry relative="1" as="geometry">
            <mxPoint x="-4670" y="2240" as="sourcePoint" />
            <mxPoint x="-4674.95" y="2319.5" as="targetPoint" />
          </mxGeometry>
        </mxCell>
        <mxCell id="avMDx9u3WF0ZAJYoT9_1-105" value="" style="rounded=0;orthogonalLoop=1;jettySize=auto;html=1;entryX=0.5;entryY=0;entryDx=0;entryDy=0;exitX=0.5;exitY=1;exitDx=0;exitDy=0;" edge="1" parent="1" source="avMDx9u3WF0ZAJYoT9_1-53" target="avMDx9u3WF0ZAJYoT9_1-104">
          <mxGeometry relative="1" as="geometry">
            <mxPoint x="-4256" y="2240" as="sourcePoint" />
            <mxPoint x="-4115" y="2450" as="targetPoint" />
          </mxGeometry>
        </mxCell>
        <mxCell id="avMDx9u3WF0ZAJYoT9_1-104" value="IPSec Site to Site VPN" style="sketch=0;points=[[0,0,0],[0.25,0,0],[0.5,0,0],[0.75,0,0],[1,0,0],[0,1,0],[0.25,1,0],[0.5,1,0],[0.75,1,0],[1,1,0],[0,0.25,0],[0,0.5,0],[0,0.75,0],[1,0.25,0],[1,0.5,0],[1,0.75,0]];outlineConnect=0;fontColor=#232F3E;fillColor=#8C4FFF;strokeColor=#ffffff;dashed=0;verticalLabelPosition=bottom;verticalAlign=top;align=center;html=1;fontSize=12;fontStyle=0;aspect=fixed;shape=mxgraph.aws4.resourceIcon;resIcon=mxgraph.aws4.site_to_site_vpn;" vertex="1" parent="1">
          <mxGeometry x="-4200.5" y="2319.5" width="39" height="39" as="geometry" />
        </mxCell>
        <mxCell id="avMDx9u3WF0ZAJYoT9_1-106" value="Region" style="points=[[0,0],[0.25,0],[0.5,0],[0.75,0],[1,0],[1,0.25],[1,0.5],[1,0.75],[1,1],[0.75,1],[0.5,1],[0.25,1],[0,1],[0,0.75],[0,0.5],[0,0.25]];outlineConnect=0;gradientColor=none;html=1;whiteSpace=wrap;fontSize=12;fontStyle=0;container=1;pointerEvents=0;collapsible=0;recursiveResize=0;shape=mxgraph.aws4.group;grIcon=mxgraph.aws4.group_region;strokeColor=#007FFF;fillColor=none;verticalAlign=top;align=left;spacingLeft=30;fontColor=#147EBA;dashed=1;" vertex="1" parent="1">
          <mxGeometry x="-3160" y="1960" width="580" height="450" as="geometry" />
        </mxCell>
        <mxCell id="avMDx9u3WF0ZAJYoT9_1-108" value="VPC" style="sketch=0;outlineConnect=0;gradientColor=none;html=1;whiteSpace=wrap;fontSize=12;fontStyle=0;shape=mxgraph.aws4.group;grIcon=mxgraph.aws4.group_vpc;strokeColor=#00CC00;fillColor=none;verticalAlign=top;align=left;spacingLeft=30;fontColor=#B6BABF;dashed=0;" vertex="1" parent="avMDx9u3WF0ZAJYoT9_1-106">
          <mxGeometry x="30" y="80" width="520" height="350" as="geometry" />
        </mxCell>
        <mxCell id="avMDx9u3WF0ZAJYoT9_1-110" value="Availability Zone" style="fillColor=none;strokeColor=#147EBA;dashed=1;verticalAlign=top;fontStyle=0;fontColor=#147EBA;whiteSpace=wrap;html=1;" vertex="1" parent="avMDx9u3WF0ZAJYoT9_1-106">
          <mxGeometry x="70" y="201" width="130" height="130" as="geometry" />
        </mxCell>
        <mxCell id="avMDx9u3WF0ZAJYoT9_1-109" value="Availability zone" style="sketch=0;outlineConnect=0;gradientColor=none;html=1;whiteSpace=wrap;fontSize=12;fontStyle=0;shape=mxgraph.aws4.group;grIcon=mxgraph.aws4.group_availability_zone;strokeColor=#545B64;fillColor=none;verticalAlign=top;align=left;spacingLeft=30;fontColor=#545B64;dashed=1;" vertex="1" parent="1">
          <mxGeometry x="-2890" y="2190" width="130" height="130" as="geometry" />
        </mxCell>
        <mxCell id="avMDx9u3WF0ZAJYoT9_1-113" value="HTTPS" style="sketch=0;outlineConnect=0;fontColor=#232F3E;gradientColor=none;fillColor=#8C4FFF;strokeColor=none;dashed=0;verticalLabelPosition=bottom;verticalAlign=top;align=center;html=1;fontSize=12;fontStyle=0;aspect=fixed;pointerEvents=1;shape=mxgraph.aws4.internet_gateway;" vertex="1" parent="1">
          <mxGeometry x="-4698" y="2316" width="46" height="46" as="geometry" />
        </mxCell>
      </root>
    </mxGraphModel>
  </diagram>
</mxfile>
